<svg width="64" height="27" viewBox="0 0 64 27" fill="none" xmlns="http://www.w3.org/2000/svg">
<g opacity="0.9">
<path d="M50.319 5.18906C50.3251 5.08456 50.405 5.00464 50.5095 5.00464H51.8804C51.9726 5.00464 52.0525 5.07841 52.0525 5.17677V9.46767C52.0525 9.55988 52.1263 9.63979 52.2247 9.63979H55.6549C56.0484 9.63979 55.9807 9.84266 55.9807 10.0886V10.316C55.9807 10.5619 56.0176 10.7648 55.6549 10.7648H52.2247C52.1325 10.7648 52.0525 10.8385 52.0525 10.9369V20.6375C52.0525 22.3281 52.8087 23.5514 54.3271 23.5514C55.3721 23.5514 56.0484 23.0719 56.7738 22.1006C56.8106 22.0514 56.8844 22.0453 56.9336 22.0883L57.284 22.4141C57.3209 22.451 57.327 22.5063 57.3024 22.5494C56.1467 24.4551 54.3271 25.6907 52.0464 25.6907C49.3723 25.6907 47.4174 24.0248 47.4174 21.074L47.4604 11.1213C47.4604 10.8754 47.4481 10.7955 47.1961 10.7955H46.1756C45.8375 10.7955 45.8498 10.6541 45.8498 10.4082V10.0455C45.8498 9.79962 45.8068 9.67053 46.1756 9.63979C48.5239 9.42463 50.2022 7.61114 50.319 5.18906Z" fill="#EEF1EB"/>
<path d="M44.8342 24.4289V22.8675C44.8342 22.8552 44.8342 22.8368 44.8342 22.8245V14.8205C44.8342 11.9374 43.2113 9.55835 39.8978 9.55835C37.6233 9.55835 35.7483 11.1813 35.0352 12.7304V10.1546C35.0352 10.0194 34.9246 9.9149 34.7955 9.9149H30.6398C30.5046 9.9149 30.4001 10.0256 30.4001 10.1546V25.4433C30.4001 25.5785 30.5107 25.683 30.6398 25.683H34.8016C34.9369 25.683 35.0414 25.5724 35.0414 25.4433V22.9966C35.0414 22.9351 35.0414 22.8859 35.0414 22.8245V13.6095C35.0414 13.5726 35.0475 13.5419 35.0659 13.505C35.6069 12.4169 36.5352 11.8206 37.5311 11.8206C39.154 11.8206 40.2052 12.9394 40.2052 15.4599V17.7529V25.4371C40.2052 25.5724 40.3158 25.6769 40.4449 25.6769H44.5944C44.7297 25.6769 44.8342 25.5662 44.8342 25.4371V24.4289Z" fill="#EEF1EB"/>
<path d="M57.8463 2.52743C57.7541 2.52743 57.6803 2.6012 57.6803 2.69341V3.12988C57.6803 3.21594 57.748 3.28356 57.8279 3.28356C58.7623 3.34504 59.3094 3.98437 59.3094 5.22615V23.1828C59.3094 23.1951 59.3094 23.1951 59.3094 23.2012V25.4389C59.3094 25.5803 59.4201 25.6909 59.5615 25.6909H63.7479C63.8892 25.6909 63.9999 25.5803 63.9999 25.4389V23.1828C63.9999 23.1828 63.9999 23.1828 63.9999 23.1705V2.76718C63.9999 2.62579 63.8892 2.51514 63.7479 2.51514L58.0615 2.52743H57.8463Z" fill="#EEF1EB"/>
<path d="M27.1182 1.84389C27.3087 1.94839 27.3825 2.18199 27.2964 2.38486L25.3538 7.0446C25.1756 7.47492 24.7453 7.49336 24.4871 7.11837C23.7863 6.11634 22.3539 4.40121 20.19 3.31312C15.5057 0.958659 3.42602 1.96069 4.50182 15.9153C4.85837 20.5689 7.29274 23.2185 9.10008 24.0914C10.9074 24.9643 13.8213 24.9336 14.1594 22.2718C14.4975 19.6099 11.9648 17.1878 13.5631 13.2412C14.1102 11.8949 15.8991 9.92159 18.8929 9.59578C21.8006 9.28226 25.7104 10.4441 26.9768 13.899C27.905 16.444 27.7759 22.53 27.7759 23.8639V25.2717C27.7759 25.5176 27.6407 25.659 27.3948 25.659L23.399 25.6713C23.1531 25.6713 23.0117 25.536 23.0117 25.284V18.571C23.0117 18.571 23.0793 15.6694 22.5014 13.3088C22.1388 11.8396 21.1798 11.108 20.2269 10.6716C19.6613 10.4134 17.9954 10.0999 16.7229 10.8068C16.268 11.0589 15.0815 11.6367 14.9278 13.0752C14.768 14.5813 15.6348 15.8047 17.7495 18.1038C20.3068 20.8824 19.6306 24.3803 15.6286 25.8987C10.766 27.743 3.86249 26.6979 0.850252 20.489C-0.274725 18.1653 -0.532917 13.2412 1.63712 9.60193C8.95254 -2.69291 22.7105 -0.547458 27.1182 1.84389Z" fill="#EEF1EB"/>
</g>
</svg>
