<svg width="120" height="76" viewBox="0 0 120 76" fill="none" xmlns="http://www.w3.org/2000/svg">
<g opacity="0.9">
<path d="M86.7686 8.43238C86.7786 8.26255 86.9084 8.13269 87.0783 8.13269H89.3059C89.4558 8.13269 89.5856 8.25257 89.5856 8.4124V15.3851C89.5856 15.535 89.7055 15.6648 89.8654 15.6648H95.4395C96.0789 15.6648 95.969 15.9945 95.969 16.3941V16.7637C95.969 17.1633 96.0289 17.4929 95.4395 17.4929H89.8654C89.7155 17.4929 89.5856 17.6128 89.5856 17.7726V33.5362C89.5856 36.2833 90.8144 38.2712 93.2818 38.2712C94.98 38.2712 96.0789 37.492 97.2576 35.9137C97.3176 35.8338 97.4374 35.8238 97.5174 35.8937L98.0868 36.4232C98.1467 36.4831 98.1567 36.573 98.1167 36.6429C96.2387 39.7397 93.2818 41.7476 89.5757 41.7476C85.2302 41.7476 82.0535 39.0404 82.0535 34.2454L82.1234 18.0723C82.1234 17.6727 82.1035 17.5429 81.6939 17.5429H80.0356C79.4862 17.5429 79.5062 17.3131 79.5062 16.9135V16.3241C79.5062 15.9246 79.4362 15.7148 80.0356 15.6648C83.8516 15.3152 86.5788 12.3683 86.7686 8.43238Z" fill="#1B2700"/>
<path d="M77.8556 39.6972V37.1599C77.8556 37.1399 77.8556 37.1099 77.8556 37.09V24.0835C77.8556 19.3984 75.2184 15.5325 69.834 15.5325C66.1379 15.5325 63.0911 18.1697 61.9323 20.6871V16.5015C61.9323 16.2817 61.7525 16.1119 61.5427 16.1119H54.7897C54.57 16.1119 54.4001 16.2917 54.4001 16.5015V41.3455C54.4001 41.5653 54.58 41.7351 54.7897 41.7351H61.5527C61.7724 41.7351 61.9423 41.5553 61.9423 41.3455V37.3697C61.9423 37.2698 61.9423 37.1899 61.9423 37.09V22.1156C61.9423 22.0557 61.9523 22.0057 61.9822 21.9458C62.8613 20.1776 64.3697 19.2086 65.988 19.2086C68.6253 19.2086 70.3335 21.0267 70.3335 25.1225V28.8486V41.3355C70.3335 41.5553 70.5133 41.7251 70.7231 41.7251H77.4661C77.6858 41.7251 77.8556 41.5453 77.8556 41.3355V39.6972Z" fill="#1B2700"/>
<path d="M99.0004 4.10714C98.8506 4.10714 98.7307 4.22701 98.7307 4.37686V5.08612C98.7307 5.22597 98.8406 5.33585 98.9705 5.33585C100.489 5.43575 101.378 6.47467 101.378 8.49256V37.6721C101.378 37.6921 101.378 37.6921 101.378 37.7021V41.3383C101.378 41.568 101.558 41.7478 101.788 41.7478H108.59C108.82 41.7478 109 41.568 109 41.3383V37.6721C109 37.6721 109 37.6721 109 37.6521V4.49673C109 4.26697 108.82 4.08716 108.59 4.08716L99.3501 4.10714H99.0004Z" fill="#1B2700"/>
<path d="M49.0671 2.99632C49.3767 3.16615 49.4966 3.54575 49.3568 3.8754L46.2001 11.4475C45.9104 12.1468 45.2111 12.1767 44.7915 11.5674C43.6527 9.93907 41.3252 7.15198 37.8088 5.38383C30.1968 1.55782 10.5673 3.18612 12.3155 25.8624C12.8949 33.4246 16.8507 37.7301 19.7877 39.1486C22.7246 40.5671 27.4596 40.5172 28.0091 36.1917C28.5585 31.8662 24.4428 27.9303 27.0401 21.517C27.9292 19.3293 30.8361 16.1226 35.701 15.5932C40.4261 15.0837 46.7795 16.9717 48.8373 22.5859C50.3457 26.7216 50.136 36.6112 50.136 38.779V41.0666C50.136 41.4662 49.9162 41.6959 49.5166 41.6959L43.0234 41.7159C42.6238 41.7159 42.394 41.4961 42.394 41.0866V30.1779C42.394 30.1779 42.5039 25.4629 41.5649 21.6269C40.9755 19.2394 39.4172 18.0506 37.8688 17.3413C36.9497 16.9218 34.2426 16.4123 32.1747 17.5611C31.4355 17.9707 29.5075 18.9097 29.2578 21.2473C28.998 23.6947 30.4066 25.6826 33.843 29.4187C37.9986 33.934 36.8998 39.6181 30.3966 42.0855C22.4948 45.0824 11.2765 43.3842 6.38166 33.2947C4.55357 29.5186 4.13401 21.517 7.66032 15.6032C19.5479 -4.37598 41.9046 -0.889621 49.0671 2.99632Z" fill="#1B2700"/>
</g>
<path d="M0 72.5769H1.14711L2.24833 69.4341H7.15794L8.25916 72.5769H9.45215L5.33786 61.2277H4.08369L0 72.5769ZM2.6154 68.4023L4.69548 62.323H4.72607L6.80616 68.4023H2.6154Z" fill="#1B2700"/>
<path d="M10.4886 72.5769H11.4828V61.2277H10.4886V72.5769Z" fill="#1B2700"/>
<path d="M13.3116 72.5769H14.3057V61.2277H13.3116V72.5769Z" fill="#1B2700"/>
<path d="M19.81 75.4182C20.8501 75.4182 21.5383 74.8309 22.3031 72.815L25.4232 64.4817H24.3526L21.936 71.2277H21.9054L19.3665 64.4817H18.2653L21.416 72.5293C20.9877 74.0214 20.3912 74.5135 19.6571 74.5135C19.4124 74.5135 19.29 74.4976 19.0606 74.4658V75.3547C19.3818 75.4023 19.5653 75.4182 19.81 75.4182Z" fill="#1B2700"/>
<path d="M29.5653 72.7992C31.9054 72.7992 33.3125 71.0531 33.3125 68.5452C33.3125 66.0214 31.9054 64.2754 29.5653 64.2754C27.2252 64.2754 25.8181 66.0214 25.8181 68.5452C25.8181 71.0531 27.2252 72.7992 29.5653 72.7992ZM26.8582 68.5452C26.8582 66.6722 27.7452 65.1801 29.5653 65.1801C31.3854 65.1801 32.2725 66.6722 32.2725 68.5452C32.2725 70.4023 31.3854 71.8944 29.5653 71.8944C27.7452 71.8944 26.8582 70.4023 26.8582 68.5452Z" fill="#1B2700"/>
<path d="M37.2083 72.7674C38.6001 72.7674 39.4413 72.1008 39.8849 71.4341H39.9154V72.5769H40.9096V64.4817H39.9154V69.5928C39.9154 70.7833 38.9366 71.8627 37.453 71.8627C36.1071 71.8627 35.6482 70.9738 35.6482 69.942V64.4817H34.6541V70.1642C34.6541 71.9579 35.8164 72.7674 37.2083 72.7674Z" fill="#1B2700"/>
<path d="M51.3581 67.1166V72.5769H52.3522V66.8944C52.3522 65.1008 51.1898 64.2912 49.798 64.2912C48.4062 64.2912 47.565 64.9738 47.1214 65.6404H47.0908V64.4817H46.0967V72.5769H47.0908V67.4658C47.0908 66.2754 48.0697 65.196 49.5533 65.196C50.8992 65.196 51.3581 66.0849 51.3581 67.1166Z" fill="#1B2700"/>
<path d="M57.436 72.7992C59.3938 72.7992 60.4644 71.5769 60.8468 70.1008H59.8373C59.6844 70.7674 59.0573 71.9103 57.4513 71.9103C55.616 71.9103 54.7748 70.3706 54.7595 68.7357H60.9385C60.9538 68.6087 60.9538 68.3865 60.9538 68.1642C60.9538 65.9103 59.6844 64.2754 57.436 64.2754C55.1877 64.2754 53.7194 65.942 53.7194 68.5293C53.7194 70.9896 55.0501 72.7992 57.436 72.7992ZM54.7595 67.8309C54.8359 66.323 55.876 65.1642 57.3902 65.1642C58.9961 65.1642 59.8985 66.3865 59.8985 67.8309H54.7595Z" fill="#1B2700"/>
<path d="M65.651 72.7992C67.6087 72.7992 68.6793 71.5769 69.0617 70.1008H68.0523C67.8993 70.7674 67.2722 71.9103 65.6663 71.9103C63.8309 71.9103 62.9897 70.3706 62.9744 68.7357H69.1535C69.1688 68.6087 69.1688 68.3865 69.1688 68.1642C69.1688 65.9103 67.8993 64.2754 65.651 64.2754C63.4027 64.2754 61.9344 65.942 61.9344 68.5293C61.9344 70.9896 63.265 72.7992 65.651 72.7992ZM62.9744 67.8309C63.0509 66.323 64.0909 65.1642 65.6051 65.1642C67.2111 65.1642 68.1134 66.3865 68.1134 67.8309H62.9744Z" fill="#1B2700"/>
<path d="M73.5753 72.7833C74.9366 72.7833 75.7625 72.0531 76.206 71.2595H76.2366V72.5769H77.2308V61.2277H76.2366V65.8468H76.206C75.7472 64.9896 74.9366 64.2912 73.5753 64.2912C71.6788 64.2912 70.1493 65.8785 70.1493 68.5293C70.1493 71.196 71.6788 72.7833 73.5753 72.7833ZM71.1894 68.5293C71.1894 66.7198 72.0764 65.196 73.6977 65.196C75.1966 65.196 76.2366 66.4976 76.2366 68.5293C76.2366 70.5769 75.1966 71.8785 73.6977 71.8785C72.0764 71.8785 71.1894 70.3547 71.1894 68.5293Z" fill="#1B2700"/>
<path d="M82.4217 72.5769H83.4158V64.4817H82.4217V72.5769ZM82.2687 62.8627H83.5535V61.5293H82.2687V62.8627Z" fill="#1B2700"/>
<path d="M88.12 72.7833C90.0472 72.7833 91.179 71.815 91.179 70.3388C91.179 68.6563 89.726 68.2277 88.2577 67.8627C87.08 67.5611 86.0247 67.4182 86.0247 66.4023C86.0247 65.6404 86.6517 65.196 87.7682 65.196C89.2824 65.196 89.6954 66.0373 89.833 66.7515H90.8731C90.7354 65.4182 89.7872 64.2912 87.753 64.2912C85.9941 64.2912 84.9846 65.1484 84.9846 66.4658C84.9846 68.0373 86.4376 68.4023 87.8753 68.7833C88.9612 69.0531 90.1236 69.1801 90.1236 70.3706C90.1236 71.1642 89.6189 71.8785 88.1353 71.8785C86.4988 71.8785 85.7952 71.0373 85.7341 69.9262H84.694C84.7399 71.5452 85.9329 72.7833 88.12 72.7833Z" fill="#1B2700"/>
<path d="M101.464 59.4182C101.127 59.7357 100.515 59.8785 98.7411 59.8785L98.6494 60.2436C99.72 60.2436 99.8577 60.5611 99.5671 61.45L96.814 70.3071C96.5999 70.942 96.4775 71.3388 96.4775 71.7039C96.4775 72.2754 96.7528 72.7198 97.5634 72.7198C98.8023 72.7198 99.8118 71.1166 100.362 69.7039H100.011C99.4906 70.8627 98.8176 71.8627 98.2517 71.8627C98.0376 71.8627 97.9764 71.7357 97.9764 71.4976C97.9764 71.2754 98.1447 70.7198 98.267 70.3547L101.647 59.5293L101.464 59.4182Z" fill="#1B2700"/>
<path d="M103.5 71.7833C102.812 71.7833 102.353 71.2912 102.353 70.2595C102.353 69.8785 102.399 69.4341 102.49 68.9738C104.601 68.6404 106.758 67.1484 106.758 65.3706C106.758 64.5135 106.192 63.9262 105.289 63.9262C103.041 63.9262 100.823 67.6563 100.823 70.3547C100.823 71.9261 101.619 72.7992 102.827 72.7992C104.28 72.7992 105.503 71.3865 106.36 69.196H106.023C105.259 70.7992 104.402 71.7833 103.5 71.7833ZM105.198 64.5293C105.58 64.5293 105.702 64.7992 105.702 65.2595C105.702 66.7357 104.249 68.0373 102.613 68.4658C103.072 66.5928 104.112 64.5293 105.198 64.5293Z" fill="#1B2700"/>
<path d="M108.887 72.7992C110.356 72.7992 111.457 71.6881 111.457 70.2436C111.457 69.4817 111.136 68.9738 110.555 68.0373L110.172 67.3865C109.759 66.7674 109.484 66.2119 109.484 65.6563C109.484 64.8785 109.943 64.45 110.555 64.45C111.151 64.45 111.38 64.7992 111.533 65.2436C111.64 65.6246 111.763 65.8785 112.084 65.8785C112.421 65.8785 112.742 65.5928 112.742 65.1642C112.742 64.6246 112.145 63.8944 110.922 63.8944C109.453 63.8944 108.214 64.9262 108.214 66.4182C108.214 67.2119 108.551 67.7833 109.117 68.6563L109.53 69.323C109.912 69.8785 110.187 70.3388 110.187 70.942C110.187 71.6881 109.836 72.2277 109.132 72.2277C108.505 72.2277 108.153 71.8468 107.878 71.1008C107.725 70.6563 107.618 70.45 107.312 70.45C106.945 70.45 106.654 70.7357 106.654 71.1642C106.654 72.0373 107.679 72.7992 108.887 72.7992Z" fill="#1B2700"/>
<path d="M114.369 72.7992C115.837 72.7992 116.939 71.6881 116.939 70.2436C116.939 69.4817 116.617 68.9738 116.036 68.0373L115.654 67.3865C115.241 66.7674 114.966 66.2119 114.966 65.6563C114.966 64.8785 115.424 64.45 116.036 64.45C116.633 64.45 116.862 64.7992 117.015 65.2436C117.122 65.6246 117.244 65.8785 117.566 65.8785C117.902 65.8785 118.223 65.5928 118.223 65.1642C118.223 64.6246 117.627 63.8944 116.403 63.8944C114.935 63.8944 113.696 64.9262 113.696 66.4182C113.696 67.2119 114.033 67.7833 114.598 68.6563L115.011 69.323C115.394 69.8785 115.669 70.3388 115.669 70.942C115.669 71.6881 115.317 72.2277 114.614 72.2277C113.987 72.2277 113.635 71.8468 113.36 71.1008C113.207 70.6563 113.1 70.45 112.794 70.45C112.427 70.45 112.136 70.7357 112.136 71.1642C112.136 72.0373 113.161 72.7992 114.369 72.7992Z" fill="#1B2700"/>
<path d="M118.715 72.5769H120V71.2436H118.715V72.5769Z" fill="#1B2700"/>
</svg>
